<svg width="64" height="64" viewBox="0 0 16.933 16.933" xmlns="http://www.w3.org/2000/svg"><g stroke-width="8" paint-order="markers stroke fill"><path fill="#00112b" d="M0 0h16.933v16.933H0z"/><g fill="#d7eef4"><path d="M11.18 9.823a2.457 2.526 0 01-2.457 2.526 2.457 2.526 0 01-2.458-2.526 2.457 2.526 0 012.458-2.526 2.457 2.526 0 012.457 2.526zM5.241 3.883a.983 1.01 0 01-.983 1.01.983 1.01 0 01-.983-1.01.983 1.01 0 01.983-1.01.983 1.01 0 01.983 1.01zM5.6 10.669a.983 1.01 0 01-.984 1.01.983 1.01 0 01-.983-1.01.983 1.01 0 01.983-1.01.983 1.01 0 01.983 1.01zM12.336 3.481a1.474 1.515 0 01-1.474 1.516A1.474 1.515 0 019.387 3.48a1.474 1.515 0 011.475-1.515 1.474 1.515 0 011.474 1.515zM8.609 5.491a1.474 1.515 0 01-1.475 1.515A1.474 1.515 0 015.66 5.491a1.474 1.515 0 011.474-1.515A1.474 1.515 0 018.61 5.49zM14.126 7.172a1.474 1.515 0 01-1.474 1.515 1.474 1.515 0 01-1.474-1.515 1.474 1.515 0 011.474-1.516 1.474 1.515 0 011.474 1.516zM9.103 14.383a1.474 1.515 0 01-1.474 1.515 1.474 1.515 0 01-1.474-1.515 1.474 1.515 0 011.474-1.516 1.474 1.515 0 011.474 1.516zM4.773 7.49A.983 1.01 0 013.79 8.5a.983 1.01 0 01-.983-1.01.983 1.01 0 01.983-1.01.983 1.01 0 01.983 1.01zM8.5 2.045a.983 1.01 0 01-.983 1.01.983 1.01 0 01-.983-1.01.983 1.01 0 01.983-1.01.983 1.01 0 01.983 1.01z"/><path d="M5.241 3.883a.983 1.01 0 01-.983 1.01.983 1.01 0 01-.983-1.01.983 1.01 0 01.983-1.01.983 1.01 0 01.983 1.01zM5.6 10.669a.983 1.01 0 01-.984 1.01.983 1.01 0 01-.983-1.01.983 1.01 0 01.983-1.01.983 1.01 0 01.983 1.01zM12.336 3.481a1.474 1.515 0 01-1.474 1.516A1.474 1.515 0 019.387 3.48a1.474 1.515 0 011.475-1.515 1.474 1.515 0 011.474 1.515zM8.609 5.491a1.474 1.515 0 01-1.475 1.515A1.474 1.515 0 015.66 5.491a1.474 1.515 0 011.474-1.515A1.474 1.515 0 018.61 5.49zM14.126 7.172a1.474 1.515 0 01-1.474 1.515 1.474 1.515 0 01-1.474-1.515 1.474 1.515 0 011.474-1.516 1.474 1.515 0 011.474 1.516zM9.103 14.383a1.474 1.515 0 01-1.474 1.515 1.474 1.515 0 01-1.474-1.515 1.474 1.515 0 011.474-1.516 1.474 1.515 0 011.474 1.516zM4.773 7.49A.983 1.01 0 013.79 8.5a.983 1.01 0 01-.983-1.01.983 1.01 0 01.983-1.01.983 1.01 0 01.983 1.01zM8.5 2.045a.983 1.01 0 01-.983 1.01.983 1.01 0 01-.983-1.01.983 1.01 0 01.983-1.01.983 1.01 0 01.983 1.01z"/></g></g></svg>